<svg xmlns="http://www.w3.org/2000/svg" viewBox="0 0 57.692 86.25"><path fill="currentColor" d="M9.43 13.576c-5.167-.004-9.44 4.27-9.43 9.43V76.82c-.01 5.163 4.267 9.44 9.43 9.43h38.832c5.163.01 9.44-4.267 9.43-9.43V23.008c.01-5.163-4.267-9.44-9.43-9.43H10.258zm-.023 8.303H48.28c.665-.001 1.115.447 1.113 1.11v53.848c.001.665-.45 1.113-1.113 1.11H9.412c-.665.001-1.113-.447-1.11-1.11V23c-.001-.662.445-1.1 1.105-1.11z"/><path fill="currentColor" d="M28.846 0c-3.698 0-7.252 1.435-9.89 4.008s-4.14 6.098-4.14 9.775c0 7.616 6.37 13.783 14.03 13.783s14.03-6.167 14.03-13.783c0-3.677-1.503-7.2-4.14-9.775S32.542 0 28.846 0zm0 7.3c1.81 0 3.53.702 4.79 1.93s1.94 2.855 1.94 4.553c0 3.575-2.923 6.482-6.73 6.482s-6.73-2.907-6.73-6.482a6.34 6.34 0 0 1 1.939-4.551C25.313 8.006 27.04 7.3 28.846 7.3z"/><path fill="currentColor" stroke="currentColor" stroke-width="6.5" d="M19.22 20.26h19.252a1.25 1.25 0 0 1 1.254 1.254v9.914a1.25 1.25 0 0 1-1.254 1.254H19.22a1.25 1.25 0 0 1-1.254-1.254v-9.914a1.25 1.25 0 0 1 1.254-1.254z"/></svg>