<svg xmlns="http://www.w3.org/2000/svg" viewBox="0 0 27.915 29.696"><path fill="currentColor" d="M13.958 0c1.046 0 1.89.935 1.89 2.097V16.47c0 1.162-.842 2.097-1.89 2.097s-1.89-.935-1.89-2.097V2.096C12.07.935 12.912 0 13.958 0zm7.464 11.843l.614.614a1.45 1.45 0 0 1 0 2.057l-7.05 7.05a1.45 1.45 0 0 1-2.057 0l-.614-.614a1.45 1.45 0 0 1 0-2.057l7.05-7.05a1.45 1.45 0 0 1 2.057 0zm-15.543.614l.614-.614a1.45 1.45 0 0 1 2.057 0l7.05 7.05a1.45 1.45 0 0 1 0 2.057l-.614.614a1.45 1.45 0 0 1-2.057 0l-7.05-7.05a1.45 1.45 0 0 1 0-2.057zM0 19.274v4.615c.014 3.2 2.603 5.79 5.803 5.806h16.3c3.2-.016 5.788-2.606 5.803-5.804v-4.617h-3.492v4.615c0 1.31-1.002 2.31-2.31 2.31H5.805c-.617.014-1.213-.226-1.648-.663s-.675-1.033-.66-1.65v-4.613z"/></svg>