<svg xmlns="http://www.w3.org/2000/svg" viewBox="0 0 22.244 20.131"><path fill="currentColor" d="M21.934 10.812l-.69.69c-.414.414-1.08.414-1.493 0l-9.01-9.01c-.414-.414-.414-1.08 0-1.493l.69-.69c.414-.414 1.08-.414 1.493 0l9.01 9.01c.414.414.414 1.08 0 1.493zm-.69-2.184l.69.69c.414.414.414 1.08 0 1.493l-9.01 9.01c-.414.414-1.08.414-1.493 0l-.69-.69c-.414-.414-.414-1.08 0-1.493l9.01-9.01c.414-.414 1.08-.414 1.493 0zm-9.74 2.184l-.69.69c-.414.414-1.08.414-1.493 0L.3 2.494C-.104 2.08-.104 1.415.3 1L1 .3c.414-.414 1.08-.414 1.493 0l9.01 9.01c.414.414.414 1.08 0 1.493zm-.69-2.184l.69.69c.414.414.414 1.08 0 1.493l-9.01 9.01c-.414.414-1.08.414-1.493 0l-.69-.69c-.414-.414-.414-1.08 0-1.493l9.01-9.01c.414-.414 1.08-.414 1.493 0z"/></svg>