<svg xmlns="http://www.w3.org/2000/svg" viewBox="0 0 33.168 33.168"><path fill="currentColor" d="M19.756 0a1.49 1.49 0 0 0-1.486 1.486v2.602a1.49 1.49 0 0 0 .435 1.052c.28.28.657.436 1.05.436h4.27l-9.865 9.867a1.49 1.49 0 0 0 0 2.102l1.463 1.463a1.49 1.49 0 0 0 2.102 0l9.867-9.865v4.27a1.49 1.49 0 0 0 1.486 1.486h2.604a1.49 1.49 0 0 0 1.486-1.486V1.486c0-.05-.003-.1-.008-.148l-.022-.146-.037-.145-.05-.14a1.51 1.51 0 0 0-.143-.262l-.1-.117a1.49 1.49 0 0 0-.213-.207 1.39 1.39 0 0 0-.517-.266l-.145-.033-.148-.018L31.682 0h-2.604zM7.794 0C3.514 0 .001 3.513.001 7.793v17.582c0 4.28 3.513 7.793 7.793 7.793h17.582c4.28 0 7.793-3.513 7.793-7.793v-4.56h-4.377v4.56a3.36 3.36 0 0 1-3.416 3.416H7.794a3.36 3.36 0 0 1-3.418-3.416V7.793a3.36 3.36 0 0 1 3.418-3.418h4.56V0z"/></svg>